<svg width="76" height="22" viewBox="0 0 76 22" fill="none" xmlns="http://www.w3.org/2000/svg">
<path d="M50.1252 0.189636H47.5019V21.4629H50.1252V0.189636Z" fill="#214E41"/>
<path d="M56.8124 0.189636H54.1891V21.4629H56.8124V0.189636Z" fill="#214E41"/>
<path d="M74.4657 7.11479L73.1541 9.97141C71.95 7.91551 69.8427 6.74689 67.37 6.74689C62.9405 6.74689 59.9302 10.1229 59.9302 14.278C59.9302 18.4331 62.9405 21.8091 67.37 21.8091C69.7137 21.8091 71.7349 20.7487 72.9606 18.8876V21.4628H75.7344V7.11479H74.4657ZM67.7785 20.2726C64.6607 20.2726 62.9405 17.7189 62.9405 14.278C62.9405 10.7505 64.6607 8.28341 67.7785 8.28341C70.6383 8.28341 72.767 10.7938 72.767 14.278C72.767 17.7622 70.6383 20.2726 67.7785 20.2726Z" fill="#214E41"/>
<path d="M23.8493 8.26179C23.0108 9.06251 22.3657 10.058 22.0001 11.1617L20.6455 7.09317H19.3769V21.4412H22.1507V15.9877C22.1507 14.0183 22.3657 12.3736 23.1613 11.205C23.8493 10.2095 25.032 9.60354 26.5156 9.60354C26.9887 9.60354 27.4617 9.64682 27.9348 9.73339V6.98497C27.6552 6.94169 27.3757 6.92004 27.0962 6.92004C25.8921 6.94169 24.7309 7.41779 23.8493 8.26179Z" fill="#214E41"/>
<path d="M36.4712 6.74689C32.0202 6.74689 28.8594 9.99305 28.8594 14.278C28.8594 18.5629 31.9557 21.8091 36.4497 21.8091C38.1269 21.8307 39.7825 21.333 41.1802 20.3808C42.3413 19.4935 43.1799 18.2383 43.5669 16.81H40.7071C40.2771 18.6279 39.159 20.2942 36.6432 20.2942C33.0953 20.2942 31.9557 17.5025 31.8912 14.516V14.4728H43.8895C43.8895 14.3213 43.8895 14.2131 43.8895 14.1265C43.911 9.84157 40.8792 6.74689 36.4712 6.74689ZM36.4927 8.26177C39.632 8.26177 40.6211 10.8371 40.7071 12.9146H31.9772C32.2352 10.3826 33.5254 8.26177 36.4927 8.26177Z" fill="#214E41"/>
<path d="M10.1954 11.0102C13.0122 10.4259 15.1839 8.91097 15.1839 6.27076C15.1839 3.02459 12.7542 1.46643 9.01276 1.46643H0.734375V21.4845H9.89435C13.2702 21.4845 15.9365 19.7532 15.9365 16.0958C15.9365 13.0661 13.3992 11.2266 10.1954 11.0102ZM8.06666 2.91639C10.7544 2.91639 12.1521 4.27978 12.1521 6.42225C12.1521 8.56472 10.6254 10.2311 7.83013 10.2311H3.83071V2.91639H8.06666ZM8.4322 19.9912H3.83071V11.8974H7.95915C10.905 11.8974 12.7327 13.3474 12.7327 15.966C12.7327 18.2599 11.206 19.9912 8.4322 19.9912Z" fill="#214E41"/>
</svg>
